HIERARCHY
ROOT Hips
{
	OFFSET 49.837799 -2.766129 54.537998
	CHANNELS 6 Xposition Yposition Zposition Xrotation Yrotation Zrotation
	JOINT spine
	{
		OFFSET 0.000000 -0.448575 7.800591
		CHANNELS 3 Xrotation Yrotation Zrotation
		JOINT spine1
		{
			OFFSET 0.000000 -0.000002 10.136402
			CHANNELS 3 Xrotation Yrotation Zrotation
			JOINT spine2
			{
				OFFSET 0.000000 -0.000001 9.712509
				CHANNELS 3 Xrotation Yrotation Zrotation
				JOINT Neck
				{
					OFFSET 0.000000 -1.188874 24.936096
					CHANNELS 3 Xrotation Yrotation Zrotation
					JOINT Head
					{
						OFFSET 0.000000 -0.000001 7.533844
						CHANNELS 3 Xrotation Yrotation Zrotation
						End Site
						{
							OFFSET 0.000000 6.014017 18.236099
						}
					}
				}
				JOINT RightShoulder
				{
					OFFSET -4.089649 0.569455 10.488800
					CHANNELS 3 Xrotation Yrotation Zrotation
					JOINT RightArm
					{
						OFFSET 0.000000 -0.000002 13.757004
						CHANNELS 3 Xrotation Yrotation Zrotation
						JOINT RightArmRoll
						{
							OFFSET 0.000000 -0.000001 6.944778
							CHANNELS 3 Xrotation Yrotation Zrotation
							JOINT RightForeArm
							{
								OFFSET 0.000000 -0.000003 20.227692
								CHANNELS 3 Xrotation Yrotation Zrotation
								JOINT RightForeArmRoll
								{
									OFFSET 0.000000 -0.000001 7.793121
									CHANNELS 3 Xrotation Yrotation Zrotation
									JOINT RightHand
									{
										OFFSET 0.000000 -0.000002 15.639099
										CHANNELS 3 Xrotation Yrotation Zrotation
										End Site
										{
											OFFSET 0.000000 0.000000 0.100006
										}
									}
								}
							}
						}
					}
				}
				JOINT LeftShoulder
				{
					OFFSET 4.089649 0.569455 10.488800
					CHANNELS 3 Xrotation Yrotation Zrotation
					JOINT LeftArm
					{
						OFFSET 0.000000 -0.000002 13.757004
						CHANNELS 3 Xrotation Yrotation Zrotation
						JOINT LeftArmRoll
						{
							OFFSET 0.000000 -0.000001 6.944778
							CHANNELS 3 Xrotation Yrotation Zrotation
							JOINT LeftForeArm
							{
								OFFSET 0.000000 -0.000003 20.227692
								CHANNELS 3 Xrotation Yrotation Zrotation
								JOINT LeftForeArmRoll
								{
									OFFSET 0.000000 -0.000001 7.793137
									CHANNELS 3 Xrotation Yrotation Zrotation
									JOINT LeftHand
									{
										OFFSET 0.000000 -0.000002 15.639099
										CHANNELS 3 Xrotation Yrotation Zrotation
										End Site
										{
											OFFSET 0.000000 0.000000 0.100006
										}
									}
								}
							}
						}
					}
				}
			}
		}
	}
	JOINT RightUpLeg
	{
		OFFSET -6.914162 1.063580 -1.267879
		CHANNELS 3 Xrotation Yrotation Zrotation
		JOINT RightUpLegRoll
		{
			OFFSET 0.000000 -0.000003 18.337799
			CHANNELS 3 Xrotation Yrotation Zrotation
			JOINT RightLeg
			{
				OFFSET 0.000000 0.000004 -22.708500
				CHANNELS 3 Xrotation Yrotation Zrotation
				JOINT RightLegRoll
				{
					OFFSET 0.000000 -0.000004 22.782803
					CHANNELS 3 Xrotation Yrotation Zrotation
					JOINT RightFoot
					{
						OFFSET 0.000000 -0.000003 18.962898
						CHANNELS 3 Xrotation Yrotation Zrotation
						JOINT RightToeBase
						{
							OFFSET 0.000000 -0.000003 15.851997
							CHANNELS 3 Xrotation Yrotation Zrotation
							End Site
							{
								OFFSET 0.006718 0.884892 7.677010
							}
						}
					}
				}
			}
		}
	}
	JOINT LeftUpLeg
	{
		OFFSET 6.914162 1.063580 -1.267879
		CHANNELS 3 Xrotation Yrotation Zrotation
		JOINT LeftUpLegRoll
		{
			OFFSET 0.000000 -0.000003 18.337898
			CHANNELS 3 Xrotation Yrotation Zrotation
			JOINT LeftLeg
			{
				OFFSET 0.000000 -0.000004 22.708405
				CHANNELS 3 Xrotation Yrotation Zrotation
				JOINT LeftLegRoll
				{
					OFFSET 0.000000 -0.000004 22.993401
					CHANNELS 3 Xrotation Yrotation Zrotation
					JOINT LeftFoot
					{
						OFFSET 0.000000 -0.000003 18.752205
						CHANNELS 3 Xrotation Yrotation Zrotation
						JOINT LeftToeBase
						{
							OFFSET 0.000000 -0.000003 15.852005
							CHANNELS 3 Xrotation Yrotation Zrotation
							End Site
							{
								OFFSET -0.030113 0.884891 7.677017
							}
						}
					}
				}
			}
		}
	}
}
MOTION
Frames: 10
Frame Time: 0.041667
55.331200 -32.659515 94.001785 -2.545541 1.791591 1.770617 -0.921781 -0.188691 0.009598 2.142807 -0.377416 0.029245 3.787902 -0.377039 0.039972 12.526866 2.626073 -1.400575 -10.971626 -3.292034 -1.499960 -25.219647 -80.164735 -28.981626 85.186434 -82.073418 101.442325 0.000001 -0.000005 0.000004 12.173362 -11.105796 0.266119 0.000002 -0.000011 -3.000001 -5.000166 -7.998731 0.000150 -3.053474 63.304037 4.063565 15.005084 107.492786 -30.340636 0.000000 -0.000005 0.000004 15.138407 5.118735 0.502359 -0.000001 -0.000002 3.000001 -5.000207 7.999409 -0.000076 -2.911133 179.738340 -2.146394 -179.999991 0.000005 -0.961999 170.883232 -0.475913 -0.665375 -0.000005 0.000001 0.033462 68.261566 6.086817 4.247707 25.456957 -7.355614 0.000000 -2.135423 178.728893 5.124442 -0.000005 -0.000004 -1.324480 -13.339950 5.353281 0.862084 0.000002 -0.000001 -0.337504 73.631625 -8.104071 1.785060 25.459981 7.355619 -0.004358 
55.324497 -32.647015 94.004196 -2.545230 1.795258 1.778280 -0.915636 -0.190799 0.008929 2.156288 -0.381597 0.028213 3.801374 -0.381233 0.038568 12.576611 2.739898 -1.396841 -10.966824 -3.406936 -1.500234 -25.184007 -80.145030 -28.944781 85.421836 -82.088594 101.644731 0.000001 -0.000004 0.000004 12.254082 -11.113949 0.273603 0.000002 -0.000011 -3.000001 -5.000170 -7.998730 0.000149 -3.073501 63.295199 4.085683 14.958309 107.501543 -30.296489 0.000000 -0.000004 0.000005 15.149518 5.108702 0.502331 0.000000 -0.000002 3.000000 -5.000206 7.999410 -0.000078 -2.911843 179.730335 -2.150564 -179.999991 0.000005 -0.962000 170.884038 -0.474929 -0.665210 -0.000005 0.000001 0.033513 68.256826 6.087000 4.245703 25.456960 -7.355615 0.000001 -2.142780 178.719905 5.114072 -0.000004 -0.000004 -1.324480 -13.347177 5.357522 0.862858 0.000002 -0.000001 -0.337492 73.633961 -8.107262 1.794769 25.459978 7.355619 -0.004358 
55.317898 -32.644421 94.001389 -2.544943 1.799034 1.785829 -0.909501 -0.192943 0.008277 2.169789 -0.385847 0.027247 3.814876 -0.385495 0.037225 12.626351 2.856899 -1.393470 -10.963816 -3.526809 -1.500785 -25.149113 -80.125373 -28.908738 85.655265 -82.104994 101.845251 0.000001 -0.000004 0.000005 12.336141 -11.122211 0.281253 0.000000 -0.000011 -3.000002 -5.000168 -7.998730 0.000152 -3.094317 63.285534 4.108626 14.913358 107.510442 -30.254596 0.000000 -0.000006 0.000004 15.159911 5.098340 0.502311 -0.000001 -0.000002 3.000000 -5.000205 7.999408 -0.000079 -2.912185 179.723355 -2.154776 -179.999991 0.000005 -0.962000 170.884817 -0.473932 -0.665043 -0.000005 0.000001 0.033590 68.252407 6.087179 4.243680 25.456959 -7.355616 0.000000 -2.149511 178.709919 5.103388 -0.000005 -0.000004 -1.324480 -13.353904 5.361978 0.863635 0.000002 0.000000 -0.337474 73.636413 -8.110706 1.805147 25.459979 7.355619 -0.004358 
55.312996 -32.643314 94.001389 -2.544702 1.802891 1.793302 -0.903375 -0.195111 0.007636 2.183311 -0.390146 0.026328 3.828398 -0.389807 0.035923 12.676078 2.976127 -1.390418 -10.962013 -3.650177 -1.501531 -25.114971 -80.105879 -28.873464 85.885503 -82.122206 102.042828 0.000001 -0.000005 0.000003 12.418917 -11.130415 0.288960 0.000002 -0.000011 -2.999999 -5.000167 -7.998731 0.000151 -3.115700 63.275269 4.132168 14.868034 107.521391 -30.212396 0.000001 -0.000005 0.000003 15.169797 5.087762 0.502303 -0.000001 -0.000002 3.000001 -5.000207 7.999407 -0.000080 -2.912278 179.715364 -2.158919 -179.999991 0.000005 -0.962000 170.885596 -0.472948 -0.664879 -0.000005 0.000001 0.033685 68.248275 6.087318 4.241736 25.456957 -7.355615 0.000001 -2.155822 178.700917 5.092418 -0.000004 -0.000004 -1.324480 -13.360237 5.366580 0.864408 0.000003 -0.000001 -0.337452 73.639056 -8.114304 1.816219 25.459981 7.355619 -0.004357 
55.315697 -32.641815 94.001083 -2.544454 1.806798 1.800728 -0.897250 -0.197294 0.007002 2.196833 -0.394472 0.025435 3.841921 -0.394146 0.034647 12.725789 3.096634 -1.387639 -10.961083 -3.775539 -1.502400 -25.081657 -80.086557 -28.839039 86.116541 -82.139841 102.241218 0.000001 -0.000003 0.000004 12.502307 -11.138566 0.296734 0.000002 -0.000012 -2.999999 -5.000168 -7.998730 0.000151 -3.137400 63.264777 4.156031 14.823496 107.532395 -30.171138 0.000000 -0.000005 0.000002 15.179479 5.077042 0.502288 0.000000 -0.000002 3.000002 -5.000206 7.999409 -0.000078 -2.912226 179.707372 -2.163063 -179.999991 0.000005 -0.962000 170.886347 -0.471965 -0.664714 -0.000006 0.000001 0.033790 68.244272 6.087503 4.239591 25.456957 -7.355616 0.000001 -2.161868 178.690931 5.081342 -0.000004 -0.000004 -1.324480 -13.366271 5.371263 0.865171 0.000002 -0.000001 -0.337428 73.641665 -8.118056 1.827467 25.459984 7.355619 -0.004357 
55.313198 -32.635319 94.000885 -2.544220 1.810714 1.808145 -0.891129 -0.199480 0.006370 2.210364 -0.398806 0.024551 3.855454 -0.398493 0.033380 12.775574 3.217463 -1.385089 -10.960408 -3.901392 -1.503297 -25.048261 -80.067138 -28.804533 86.347067 -82.157491 102.439075 0.000001 -0.000003 0.000002 12.585709 -11.146782 0.304548 -0.000001 -0.000011 -3.000001 -5.000166 -7.998730 0.000152 -3.159175 63.254095 4.179977 14.779995 107.542462 -30.131059 0.000001 -0.000006 0.000005 15.189060 5.066296 0.502283 -0.000001 -0.000002 3.000001 -5.000206 7.999409 -0.000080 -2.912129 179.700392 -2.167248 -179.999991 0.000005 -0.962000 170.887098 -0.470981 -0.665547 -0.000006 0.000001 0.033897 68.240352 6.087626 4.237632 25.456955 -7.355614 0.000000 -2.167859 178.680945 5.070238 -0.000004 -0.000004 -1.324480 -13.372303 5.375968 0.865941 0.000002 -0.000001 -0.337403 73.644377 -8.121792 1.838923 25.459984 7.355619 -0.004357 
55.311398 -32.633213 94.001785 -2.543985 1.814601 1.815580 -0.885007 -0.201659 0.005735 2.223885 -0.403127 0.023656 3.868975 -0.402827 0.032102 12.825523 3.337667 -1.382720 -10.959377 -4.026248 -1.504124 -25.014916 -80.047727 -28.770072 86.579485 -82.174750 102.638810 0.000001 -0.000005 0.000004 12.669013 -11.154971 0.312383 0.000001 -0.000011 -3.000001 -5.000167 -7.998729 0.000152 -3.180756 63.243604 4.203719 14.735356 107.553479 -30.089722 -0.000000 -0.000004 0.000001 15.198747 5.055618 0.502283 -0.000001 -0.000002 3.000000 -5.000205 7.999409 -0.000080 -2.912113 179.692401 -2.171392 -179.999991 0.000005 -0.962000 170.887877 -0.469998 -0.665383 -0.000005 0.000001 0.034000 68.236329 6.087774 4.235582 25.456957 -7.355615 0.000001 -2.173979 178.671957 5.059169 -0.000005 -0.000004 -1.324480 -13.378435 5.380629 0.866711 0.000003 -0.000001 -0.337380 73.646972 -8.125517 1.850172 25.459986 7.355619 -0.004357 
55.311596 -32.618610 94.000595 -2.543721 1.818437 1.823072 -0.878877 -0.203821 0.005093 2.237397 -0.407414 0.022731 3.882488 -0.407127 0.030797 12.875519 3.456279 -1.380468 -10.957463 -4.148616 -1.504786 -24.981277 -80.028227 -28.735289 86.814737 -82.191197 102.841284 0.000001 -0.000004 0.000002 12.751614 -11.163260 0.320189 -0.000001 -0.000011 -3.000001 -5.000168 -7.998730 0.000150 -3.201909 63.233420 4.227014 14.690714 107.563458 -30.048164 0.000000 -0.000005 0.000004 15.208837 5.045105 0.502286 -0.000002 -0.000002 3.000002 -5.000206 7.999410 -0.000081 -2.912275 179.685406 -2.175595 -179.999991 0.000005 -0.962000 170.888642 -0.469999 -0.665377 -0.000005 0.000001 0.034090 68.232101 6.087938 4.233547 25.456957 -7.355616 0.000000 -2.180412 178.661971 5.048319 -0.000004 -0.000004 -1.324480 -13.384866 5.385179 0.867486 0.000002 -0.000000 -0.337359 73.649506 -8.129097 1.860940 25.459983 7.355620 -0.004358 
55.308495 -32.616913 94.000687 -2.543436 1.822184 1.830660 -0.872740 -0.205954 0.004439 2.250898 -0.411646 0.021758 3.895980 -0.411373 0.029448 12.925648 3.572377 -1.378287 -10.954237 -4.267000 -1.505187 -24.947093 -80.008563 -28.699943 87.053473 -82.206436 103.047153 0.000001 -0.000004 0.000004 12.833298 -11.171459 0.327937 0.000003 -0.000011 -3.000001 -5.000167 -7.998729 0.000152 -3.222407 63.224049 4.249619 14.644726 107.573355 -30.005130 0.000000 -0.000004 0.000003 15.219436 5.034838 0.502291 -0.000001 -0.000003 3.000001 -5.000205 7.999409 -0.000078 -2.912738 179.677429 -2.179757 -179.999991 0.000005 -0.962000 170.889434 -0.469002 -0.665211 -0.000005 0.000000 0.034159 68.227682 6.088113 4.231525 25.456957 -7.355616 0.000001 -2.187333 178.652982 5.037714 -0.000004 -0.000004 -1.324480 -13.391697 5.389573 0.868264 0.000003 -0.000001 -0.337343 73.652020 -8.132411 1.871143 25.459981 7.355619 -0.004357 
55.298897 -32.610310 94.002090 -2.543099 1.825801 1.838359 -0.866590 -0.208049 0.003768 2.264359 -0.415803 0.020717 3.909453 -0.415545 0.028036 12.975992 3.684981 -1.376114 -10.948969 -4.379898 -1.505207 -24.911973 -79.988653 -28.663603 87.297426 -82.220048 103.257967 0.000001 -0.000005 0.000004 12.913658 -11.179593 0.335582 -0.000000 -0.000011 -3.000000 -5.000169 -7.998730 0.000151 -3.242007 63.215504 4.271283 14.597631 107.582153 -29.960621 -0.000000 -0.000006 0.000003 15.230746 5.024936 0.502304 -0.000000 -0.000002 3.000001 -5.000206 7.999408 -0.000079 -2.913598 179.670421 -2.183995 -179.999991 0.000005 -0.962000 170.890240 -0.468018 -0.665046 -0.000005 0.000001 0.034201 68.222737 6.088308 4.229534 25.456953 -7.355614 0.000000 -2.194941 178.642997 5.027545 -0.000005 -0.000004 -1.324480 -13.399224 5.393726 0.869055 0.000003 -0.000001 -0.337333 73.654315 -8.135510 1.880664 25.459978 7.355619 -0.004358 
